# xmcd
#
# Track frame offsets:
#	150
#	17250
#	32606
#	50959
#	71789
#	84457
#	101584
#	120897
#	140219
#
# Disc length: 2235 seconds
#
# Revision: 1
# Processed by: cddbd v1.5.2PL0 Copyright (c) Steve Scherf et al.
# Submitted via: audiograbber 1.83.01
#
DISCID=7508b909
DTITLE=Kitstone - Demo
DYEAR=2000
DGENRE=Pop
TTITLE0=Kitstone - Stranger
TTITLE1=Kitstone - Tumblin
TTITLE2=Kitstone - Floating
TTITLE3=Kitstone - Do it on your own
TTITLE4=Kitstone - Parasites
TTITLE5=Kitstone - It's real
TTITLE6=Kitstone - Hey You
TTITLE7=Kitstone - They say
TTITLE8=Kitstone - Out of control
EXTD=
EXTT0=
EXTT1=
EXTT2=
EXTT3=
EXTT4=
EXTT5=
EXTT6=
EXTT7=
EXTT8=
PLAYORDER=
